<svg width="47" height="47" fill="none" xmlns="http://www.w3.org/2000/svg"><path d="M0 2.238A2.238 2.238 0 012.238 0h42.524A2.238 2.238 0 0147 2.238v42.524A2.238 2.238 0 0144.762 47H2.238A2.238 2.238 0 010 44.762V2.238z" fill="#BB86FC" fill-opacity=".12"/><path d="M22.1 9.75c.481-1.3 2.319-1.3 2.8 0l3.097 8.371c.151.409.473.73.882.882L37.25 22.1c1.3.481 1.3 2.318 0 2.8l-8.371 3.097c-.409.151-.73.473-.882.881L24.9 37.25c-.48 1.299-2.318 1.299-2.798 0l-3.098-8.372a1.493 1.493 0 00-.882-.881L9.75 24.899c-1.3-.48-1.3-2.318 0-2.799l8.371-3.097c.409-.151.73-.473.882-.882l3.098-8.371z" fill="#BB86FC"/></svg>