<svg width="47" height="47" fill="none" xmlns="http://www.w3.org/2000/svg"><path d="M26.102 32.348c1.74 5.547 4.013 10.74 6.253 10.82 3.624.129 7.334-12.89 8.736-19.415 1.24-.917 3.721-2.913 3.721-3.56 0-.809-6.956-5.177-12.457-5.177a110.98 110.98 0 00-5.236 1.296c1.448.722 2.702 1.472 3.612 2.118.47.333.866.65 1.155.933.142.14.277.289.382.442.087.127.238.375.238.69 0 .322-.14.602-.246.779-.12.201-.277.406-.447.603-.341.396-.798.837-1.282 1.271a42.575 42.575 0 01-2.66 2.167 121.316 121.316 0 01-1.77 7.033z" fill="#BB86FC" fill-opacity=".7"/><path d="M30.95 20.733l-.007-.013.008.013zM32.49 13.31a5.59 5.59 0 100-11.18 5.59 5.59 0 000 11.18z" fill="#BB86FC" fill-opacity=".7"/><path d="M23.012 6.402a6.402 6.402 0 11-12.804 0 6.402 6.402 0 0112.804 0zM2.188 19.76c0-1.482 9.511-3.952 14.268-5.002 6.3 0 14.267 5.003 14.267 5.93 0 .74-2.841 3.026-4.262 4.076-1.605 7.473-5.855 22.383-10.005 22.235-4.151-.148-8.4-15.627-10.006-23.347-1.42-.68-4.262-2.409-4.262-3.891z" fill="#BB86FC"/></svg>