<svg width="48" height="47" fill="none" xmlns="http://www.w3.org/2000/svg"><path d="M8.365 36.3c2.813-1.124 2.39-4.062 1.71-5.714l.13.01.064-.339c.122-.65.255-1.744.405-2.977.24-1.97.522-4.297.872-5.735.06.138.167.464.29.834.193.584.421 1.276.551 1.498.497.853 1.143 1.742 1.845 2.59 1.33 1.605 2.89 3.093 4.06 3.916-.057.789-.427 2.394-1.24 3.976-.885 1.724-2.25 3.333-4.202 3.866l-.923.252.842.453c4.177 2.25 7.897.13 9.24-1.213l.008-.008 5.753-6.376-1.147 1.91c.165-.274.093-.098-.063.284-.205.502-.555 1.359-.701 2.01l1.91-1.911-1.502 4.203c.298.764 1.12-.382 1.12-.382l-1.12 4.005c-1.71-.303-4.925 3.453-6.439 5.548v-3.057c0-1.223-.764-1.019-1.146-.764-.51.382-1.834 1.146-3.057 1.146-2.445.306-3.566-.637-3.821-1.146-.892-1.529-2.828-5.044-3.44-6.878z" fill="#BB86FC" fill-opacity=".7"/><path d="M9.893 30.187c-1.528-.127-5.3-4.391-3.82-10.317 1.79-7.17 8.58-10.68 13.114-11.66 1.454 1.292 3.526 3.329 5.292 5.488.934 1.14 1.775 2.307 2.396 3.411.577 1.027.947 1.972 1.04 2.773-.762-.193-1.33-.118-1.728.165-.48.343-.585.901-.557 1.278l.006.077.038.068c.144.262.287.653.282.986a.667.667 0 01-.102.378c-.06.087-.168.176-.374.231l-.03.008-.029.013c-.613.287-1.015.685-1.23 1.16-.213.47-.227.978-.137 1.457.176.946.769 1.869 1.248 2.428l.393.458.209-.566c.02-.056.044-.057.061-.056.067.003.3.074.708.571.571.695 1.256 1.1 1.945 1.181.132.016.262.02.39.012l-7.27 7.716c-1.273 1.274-4.814 3.286-8.788 1.146 4.082-1.113 5.642-6.55 5.728-8.263h.008c.087-.831.083-1.817.079-2.887-.002-.5-.005-1.02.003-1.55.022-1.674.136-3.482.625-5.263l-.369-.101c-.501 1.827-.616 3.674-.639 5.359-.007.55-.005 1.079-.003 1.584.004.91.008 1.741-.046 2.472-2.344-1.725-6.569-7.529-6.932-10.074-.377 1.319-.718 4.157-1.014 6.618-.184 1.532-.35 2.917-.497 3.699z" fill="#BB86FC"/><path d="M29.136 29.719l-2.13 3.907 1.91-1.529-2.21 5.35 1.446-1.528-1.446 5.35 2.675-.765-1.91 3.057c.637.255 2.369.611 4.203 0 1.815-.605 2.283-2.507 2.292-3.41l-.003-.004.004-.004v-.021l.01.007c.56-.68 1.567-2.947 1.15-7.02l.38-.039c.418 4.082-.563 6.456-1.21 7.272l3.109 2.073c1.783-1.911 5.12-7.566 4.203-14.903-.722-5.777-5.125-12.25-8.581-16.357.156 1.201.22 2.636.21 4.038-.016 2.082-.196 4.164-.51 5.38l.015.025.03.045.016.053c.152.527.299.893.432 1.14.135.254.242.357.3.394a.145.145 0 00.027.014.224.224 0 00.064-.073l.245-.41.321.354c.504.557 1.269 2.061.318 3.673-.402.681-.506 1.148-.502 1.436.001.142.029.238.057.297a.29.29 0 00.039.064c.011.014.018.018.018.018l.26.168-.132.28a2.722 2.722 0 01-1.373 1.305c-.68.287-1.55.318-2.59-.156-.33.29-.72.467-1.137.519z" fill="#BB86FC"/><path d="M32.053 10.029a39.554 39.554 0 00-1.525-1.623l.764-1.528.382-2.293H29.38C28.77 3.057 25.305.892 23.65 0L20.21 8.024l-.075.011c1.437 1.313 3.31 3.193 4.936 5.179.95 1.16 1.82 2.365 2.47 3.52.574 1.022.99 2.031 1.119 2.952.408-.25.917-.462 1.47-.51.659-.058 1.35.119 1.975.675.22-1.162.355-2.889.369-4.664.014-1.953-.12-3.9-.421-5.158z" fill="#BB86FC"/><path fill-rule="evenodd" clip-rule="evenodd" d="M30.192 19.882c-.657.057-1.27.428-1.63.76l-.16.147-.203-.075c-.947-.351-1.4-.233-1.6-.09-.186.133-.264.363-.264.58.165.32.336.797.33 1.262a1.37 1.37 0 01-.229.772c-.165.237-.413.409-.74.503-.472.225-.728.507-.86.798-.136.3-.157.652-.086 1.034.118.63.475 1.284.84 1.78a.736.736 0 01.41-.094c.383.019.786.3 1.22.83.484.588 1.014.871 1.482.927.461.055.899-.106 1.236-.481l.184-.204.243.126c.984.509 1.713.461 2.222.246.416-.176.716-.479.894-.751a1.34 1.34 0 01-.196-.72c-.005-.46.159-1.055.6-1.804.607-1.03.315-2.003-.02-2.55a.716.716 0 01-.726-.052c-.203-.13-.38-.352-.543-.654-.16-.297-.317-.697-.472-1.225-.622-.907-1.32-1.119-1.932-1.065zm-3.395 4.465c-.135.103-.205.174-.234.223-.03.052-.064.212.136.47.193.251.573.538 1.194.749.55.187.926.363 1.176.515.126.076.225.149.3.219.065.059.148.148.187.263l-.673.224a.2.2 0 00.026.054l-.002-.003-.004-.004a1.208 1.208 0 00-.2-.146c-.195-.118-.52-.275-1.039-.451-.713-.243-1.226-.597-1.527-.987-.294-.38-.42-.862-.185-1.263.105-.178.275-.32.418-.428.075-.057.154-.112.228-.164.075-.053.145-.102.21-.151.138-.104.219-.182.258-.243.023-.036.02-.043.015-.052l-.002-.003.652-.28c.115.27.057.52-.067.716a1.744 1.744 0 01-.43.428 8.43 8.43 0 01-.224.161l-.005.004a7.278 7.278 0 00-.208.15zm5.57 1.647c.072-.581-.113-1.182-.319-1.485l.587-.398c.3.444.529 1.217.435 1.97-.098.784-.55 1.56-1.607 1.901-1.56.505-2.725.054-3.161-.302l.448-.55c.24.196 1.151.613 2.495.178.758-.245 1.053-.764 1.122-1.314zm-2.744-4.128c-.245.06-.423.337-.482.69l-.699-.117c.073-.44.343-1.096 1.011-1.26.658-.163 1.475.215 2.481 1.244l.08.08.017.112c.046.288.063.528.044.723-.018.192-.076.394-.234.537a.675.675 0 01-.519.157 1.937 1.937 0 01-.446-.103c-.082-.027-.162-.056-.242-.084a4.29 4.29 0 00-.65-.192c-.295-.056-.564-.043-.81.095-.235.13-.299.295-.294.45.006.178.108.4.315.586.393.354 1.116.531 1.887-.109l.453.545c-1.048.87-2.166.675-2.815.09-.315-.284-.534-.676-.548-1.088-.015-.436.204-.84.657-1.093.44-.247.895-.246 1.285-.173.288.054.574.155.8.236l.185.064c.122.04.206.062.264.069a.546.546 0 00.007-.054 2.003 2.003 0 00-.023-.434c-.938-.934-1.476-1.032-1.724-.97z" fill="#BB86FC"/></svg>