<svg width="48" height="47" fill="none" xmlns="http://www.w3.org/2000/svg"><path d="M28.032 30.911c0 .597-.487 1.082-1.088 1.082-.6 0-1.088-.485-1.088-1.082 0-.597.487-1.082 1.088-1.082.601 0 1.088.485 1.088 1.082z" fill="#BB86FC" fill-opacity=".7"/><path d="M25.346 30.117a1.76 1.76 0 00.114 1.783c.08.78.226 1.537.457 2.237.242.734.58 1.412 1.036 1.986.195.297.41.472.41.472l.028.01c.257.247.545.466.864.652 1.56.905 2.703 1.619 3.642 2.265.49.51.909 1.075 1.184 1.69-1.787-1.065-13.936 3.198-16.438 5.33-.357-1.067 2.144-8.171 3.931-8.526 0-.71-1.43-2.132-2.501-1.777-.213.07-.397.155-.576.237-.722.33-1.35.618-3.355-.237-2.501-1.065-5.717-6.038-4.645-7.46 1.715 0 1.905-1.657 1.786-2.486l-.08-.415c.76.27 1.62.415 2.582.415a.354.354 0 00.274-.583c-2.311-2.757-2.498-4.835-2.284-5.845.956 1.032 2.284 2.348 3.572 3.383.738.593 1.478 1.106 2.137 1.417.33.155.655.267.96.307.306.04.616.01.885-.15a.355.355 0 00.168-.363c-.057-.34-.1-.631-.133-.879.21.463.413.995.561 1.544.28 1.037.34 2.054-.028 2.786-.055.11-.05.241.016.346.065.105.18.168.304.168 1.118 0 2.062-.529 2.774-1.154.064-.057.126-.114.187-.173a12.134 12.134 0 00-.298 1.711c-.064.684-.053 1.37.096 1.97.15.602.447 1.146.973 1.494a.359.359 0 00.543-.202c.258-.942.52-1.609.761-2.073l.002.004a.354.354 0 00.091.116z" fill="#BB86FC" fill-opacity=".7"/><path d="M15.214 7.466c-2.263.592-7.004 2.913-7.861 7.46-1.072 5.683.714 11.012 6.432 11.012-2.859-3.41-2.62-5.92-2.144-6.75 1.906 2.132 6.074 6.181 7.504 5.329-.358-2.131-.215-2.487 0-2.131.714 1.184 1.93 3.978 1.072 5.683 2 0 3.454-1.894 3.93-2.842-.714 1.776-1.715 5.613 0 6.75.55-2 1.127-2.847 1.566-3.135a4.09 4.09 0 01.335-.19c.76-.407 2.526-1.353 4.166-3.32.25 1.06-2.058 3.103-2.99 3.825a1.78 1.78 0 011.507 1.754 1.781 1.781 0 01-1.9 1.773c-.131.355-.187.898.122 2.505.386.605.818 1.055 1.441 1.416 4.128 2.394 5.148 3.336 7.405 5.315l.267.233c.232-.592.366-2.422.366-5.548-.275-.841-.4-1.194-.96-2.058-.386-.595-1.416-1.24-1.73-1.863.063-.63 1.486-1.769 1.923-2.855.571-1.42 1.227-3.654 1.704-4.602l3.573 1.066c-.834-1.184-2.501-3.765-2.501-4.618 0-.37.171-.995.38-1.758.396-1.438.925-3.367.692-4.991-.286-1.99-2.978-4.855-4.288-6.04l3.93-1.775-4.645-.71c-3.046-2.014-10.74-4.974-17.152-.711-1.787 1.065-1.787-2.487.357-3.553 1.716-.852 2.62-1.065 2.86-1.065-1.43-.592-4.646-1.279-6.075.71-1.787 2.487-.358 5.329.714 5.684z" fill="#BB86FC"/><path d="M28.032 30.911c0 .597-.487 1.082-1.088 1.082-.6 0-1.088-.485-1.088-1.082 0-.597.487-1.082 1.088-1.082.601 0 1.088.485 1.088 1.082z" fill="#BB86FC"/></svg>