<svg width="48" height="47" fill="none" xmlns="http://www.w3.org/2000/svg"><path d="M44.614 8.304c-9.969-1.021-12.886-6.71-13.032-6.954C31.29.718 30.609.28 29.88.28c-.73 0-1.362.438-1.702 1.07-.146.243-3.015 5.933-13.032 6.954a1.9 1.9 0 00-1.702 1.896v10.358c0 1.896.34 3.695.972 5.397l8.753-9.58c.584-.632 1.362-1.07 2.237-1.166l4.96-.73c.195-.048.389-.048.584-.048 1.02 0 1.945.389 2.674 1.118.827.827 1.264 2.042 1.07 3.21l-.73 5.057a3.92 3.92 0 01-1.215 2.236L21.808 36.118c3.5 3.112 6.905 4.863 7.196 5.009.292.145.584.194.876.194.292 0 .583-.097.875-.194.632-.34 15.56-8.121 15.56-20.618V10.2a1.9 1.9 0 00-1.701-1.896z" fill="#BB86FC"/><path d="M15.68 37.577l15.075-13.761c.146-.098.194-.292.243-.438l.73-5.008a.719.719 0 00-.195-.633.72.72 0 00-.632-.194l-5.009.73c-.194.048-.34.097-.438.242L11.694 33.59 8.97 31.693c-.243-.146-.535-.146-.73.049l-1.312 1.361a.56.56 0 000 .827l2.869 2.87L6.1 40.494 4.74 39.133c-.195-.194-.584-.194-.827 0l-1.021 1.021a.59.59 0 00-.098.73l.973 1.556a9.593 9.593 0 002.966 2.966l1.556.973c.098.048.195.097.292.097a.552.552 0 00.39-.146l1.02-1.021a.56.56 0 000-.827L8.63 43.121l3.695-3.696 2.87 2.869a.552.552 0 00.388.146.552.552 0 00.39-.146l1.312-1.313c.195-.195.243-.486.049-.73l-1.653-2.674z" fill="#BB86FC" fill-opacity=".7"/><path fill-rule="evenodd" clip-rule="evenodd" d="M30.998 23.378l-.016.049c-.044.138-.097.302-.227.389L15.68 37.575l1.653 2.675c.194.243.146.535-.049.73l-1.313 1.313a.552.552 0 01-.389.146.552.552 0 01-.389-.146l-2.869-2.87L8.63 43.12l1.361 1.362a.56.56 0 010 .827l-1.02 1.02a.552.552 0 01-.39.146c-.097 0-.194-.048-.292-.097l-1.556-.972a9.591 9.591 0 01-2.966-2.966l-.972-1.557a.59.59 0 01.097-.729l1.021-1.021c.243-.195.632-.195.827 0L6.1 40.494 9.797 36.8l-2.87-2.87a.56.56 0 010-.826l1.314-1.361c.194-.195.486-.195.73-.049l2.722 1.896 13.762-15.074c.097-.146.243-.194.437-.243l5.009-.73a.72.72 0 01.632.195.719.719 0 01.194.632l-.729 5.009zm1.247-4.921l-.734 5.043-.015.044a1.464 1.464 0 00-.01.028c-.018.059-.053.168-.096.263a1.005 1.005 0 01-.304.389l-14.73 13.447 1.41 2.281c.358.475.24 1.05-.11 1.4l-1.313 1.313c-.217.218-.51.3-.76.3s-.542-.082-.76-.3l-2.498-2.498-2.953 2.953.99.99c.211.211.337.487.337.785 0 .298-.126.574-.336.785L9.34 46.7c-.218.219-.51.3-.76.3-.228 0-.429-.102-.51-.144a2.36 2.36 0 00-.016-.008l-.023-.011-1.577-.986a10.118 10.118 0 01-3.13-3.129l-.003-.004-.978-1.564a1.114 1.114 0 01.177-1.371l1.041-1.042.023-.018c.225-.18.503-.26.76-.26.253 0 .546.079.766.299l.99.99 2.953-2.953L6.557 34.3a1.108 1.108 0 01-.336-.785c0-.296.124-.57.332-.78l1.316-1.366c.41-.41.981-.361 1.371-.127l.015.009 2.36 1.644 13.43-14.71c.22-.298.536-.377.72-.423l.026-.007 5.022-.731c.43-.08.84.09 1.091.341.251.25.421.66.341 1.09z" fill="#BB86FC" fill-opacity=".7"/></svg>