<svg width="64" height="60" viewBox="0 0 64 60" fill="none" xmlns="http://www.w3.org/2000/svg">
<path d="M23.7996 33.875V60H0V39.375C0 28.2083 1.31535 20.125 3.94605 15.125C7.39884 8.45833 12.8658 3.41667 20.3468 0L25.7726 8.75C21.2511 10.6667 17.9216 13.5417 15.7842 17.375C13.6468 21.125 12.4547 26.625 12.2081 33.875H23.7996ZM62.027 33.875V60H38.2274V39.375C38.2274 28.2083 39.5427 20.125 42.1734 15.125C45.6262 8.45833 51.0931 3.41667 58.5742 0L64 8.75C59.4785 10.6667 56.149 13.5417 54.0116 17.375C51.8741 21.125 50.6821 26.625 50.4355 33.875H62.027Z" fill="#FF8A00"/>
</svg>
