<svg width="209" height="209" viewBox="0 0 209 209" fill="none" xmlns="http://www.w3.org/2000/svg">
<path d="M140.223 162.5C135.791 166.167 120.818 175 105.278 175C89.7385 175 73.767 166.167 68.8159 162.5" stroke="white" stroke-width="2" stroke-miterlimit="10" stroke-linecap="round"/>
<path d="M77.5457 19.5252L76.6411 13.056" stroke="white" stroke-width="2" stroke-miterlimit="10" stroke-linecap="round"/>
<path d="M60.4959 23.2871L58.5757 17.0465" stroke="white" stroke-width="2" stroke-miterlimit="10" stroke-linecap="round"/>
<path d="M44.3174 29.7825L41.3882 23.9435" stroke="white" stroke-width="2" stroke-miterlimit="10" stroke-linecap="round"/>
<path d="M29.4038 38.8544L25.583 33.5576" stroke="white" stroke-width="2" stroke-miterlimit="10" stroke-linecap="round"/>
<path d="M132.359 13.056L131.454 19.5252" stroke="white" stroke-width="2" stroke-miterlimit="10" stroke-linecap="round"/>
<path d="M150.425 17.0465L148.504 23.2871" stroke="white" stroke-width="2" stroke-miterlimit="10" stroke-linecap="round"/>
<path d="M167.612 23.9435L164.683 29.7825" stroke="white" stroke-width="2" stroke-miterlimit="10" stroke-linecap="round"/>
<path d="M183.417 33.5576L179.597 38.8544" stroke="white" stroke-width="2" stroke-miterlimit="10" stroke-linecap="round"/>
<path d="M202.469 103.873L201.473 104.317C190.951 108.993 178.587 105.519 172.043 96.0452L156.453 74.3811C156.303 74.1688 156.113 73.9957 155.934 73.8161V73.7345C155.326 72.9671 154.729 72.1997 154.082 71.442C153.867 71.1906 153.641 70.962 153.426 70.7171C142.897 55.5874 124.923 45.6077 104.5 45.6077C82.8261 45.6077 63.9802 56.5051 53.798 73.212C53.6968 73.3655 53.1122 74.0447 52.8738 74.3778L37.2837 96.042C30.7394 105.516 18.379 108.99 7.85719 104.314L6.85791 103.873L8.40582 105.578C14.3688 112.135 22.1541 115.463 30.0014 115.904L23.7314 146.796C16.7658 181.108 52.8085 208.089 83.7666 191.744C73.7281 191.535 64.8913 187.349 58.4907 180.857C64.764 184.122 72.5133 184.645 79.763 181.053L87.6397 177.15C72.2129 173.643 62.6674 158.154 66.4719 142.796L77.4215 98.6055L80.181 89.403C83.4205 108.141 99.0041 122.794 118.546 125.207C113.196 116.344 109.699 105.378 108.821 93.3707C110.95 96.8682 113.441 100.353 116.318 103.716C122.729 111.214 129.979 116.991 137.049 120.694L142.525 142.793C146.329 158.151 136.787 173.64 121.357 177.147L129.234 181.049C136.484 184.642 144.233 184.119 150.506 180.854C144.106 187.346 135.269 191.532 125.23 191.741C156.192 208.086 192.231 181.102 185.266 146.793L178.989 115.874C186.947 115.528 194.866 112.226 200.918 105.571L202.469 103.873Z" stroke="white" stroke-width="2" stroke-miterlimit="10" stroke-linecap="round" stroke-linejoin="round"/>
<path d="M166.226 142.616L166.533 153.262C166.889 165.626 159.689 176.961 148.344 181.892" stroke="white" stroke-width="2" stroke-miterlimit="10" stroke-linecap="round" stroke-linejoin="round"/>
<path d="M178.587 119.195H172.193C162.736 119.195 153.573 116.269 145.693 110.731C144.217 109.696 143.861 107.658 144.896 106.179C145.931 104.706 147.972 104.343 149.445 105.385C156.221 110.146 164.085 112.664 172.19 112.664H178.584C180.387 112.664 181.85 114.124 181.85 115.93C181.85 117.736 180.39 119.195 178.587 119.195ZM137.911 102.564C137.068 102.564 136.222 102.237 135.586 101.59L131.001 96.9401C129.734 95.6535 129.75 93.5896 131.033 92.3225C132.32 91.0522 134.387 91.0718 135.651 92.3552L140.236 97.0054C141.503 98.2921 141.487 100.356 140.203 101.623C139.57 102.253 138.74 102.564 137.911 102.564Z" fill="white"/>
<path d="M97.9688 44.9023V58.1053L93.0703 63.0037L104.5 80.3638L115.93 63.0037L111.031 58.1053V45.9245" stroke="white" stroke-width="2" stroke-miterlimit="10" stroke-linecap="round" stroke-linejoin="round"/>
<path d="M111.031 30.821V24.6783L114.297 21.4127L104.5 6.53125L94.7031 21.4127L97.9688 24.6783V30.821" stroke="white" stroke-width="2" stroke-miterlimit="10" stroke-linecap="round" stroke-linejoin="round"/>
<path d="M104.5 31.4023C77.4476 31.4023 55.5156 37.3849 55.5156 44.762C55.5156 49.52 64.6724 53.6771 78.3979 56.0447C78.855 56.159 79.3547 56.2406 79.9066 56.2406C81.7223 56.2406 83.1918 55.5385 83.1918 54.6764C83.1918 54.1408 82.5909 53.6902 81.7288 53.4093L81.7615 53.3767C81.6504 53.3571 81.5525 53.3342 81.4447 53.3146C81.252 53.2656 81.0561 53.2297 80.8438 53.2003C76.1838 52.3055 73.3296 51.1528 73.3296 49.8825C73.3296 47.0544 87.2869 44.762 104.5 44.762C121.713 44.762 135.67 47.0544 135.67 49.8825C135.67 51.1332 132.895 52.2729 128.352 53.1644C126.804 53.2918 125.606 53.9057 125.606 54.6764C125.606 55.5418 127.075 56.2406 128.891 56.2406C129.283 56.2406 129.645 56.1949 129.995 56.1361L130.008 56.1492C144.07 53.8045 153.484 49.5885 153.484 44.762C153.484 37.3849 131.552 31.4023 104.5 31.4023Z" stroke="white" stroke-width="2" stroke-miterlimit="10" stroke-linecap="round" stroke-linejoin="round"/>
<path d="M33.5411 119.195H27.147C25.3443 119.195 23.8813 117.736 23.8813 115.93C23.8813 114.124 25.3443 112.664 27.147 112.664H33.5411C36.5846 112.664 39.638 112.302 42.6228 111.586C44.3731 111.175 46.1399 112.253 46.5611 114C46.9791 115.753 45.8982 117.517 44.1446 117.938C40.6667 118.771 37.0973 119.195 33.5411 119.195ZM55.4306 113.102C54.3202 113.102 53.2361 112.533 52.6254 111.515C51.6979 109.967 52.2041 107.962 53.7488 107.034C55.4632 106.012 57.1287 104.84 58.6994 103.56C60.1004 102.42 62.1577 102.632 63.2942 104.026C64.4339 105.424 64.2249 107.482 62.8272 108.618C61.0115 110.101 59.0848 111.453 57.1026 112.641C56.5801 112.951 56.002 113.102 55.4306 113.102Z" fill="white"/>
<path d="M42.7727 142.616L42.4657 153.262C42.1098 165.626 49.3105 176.961 60.6553 181.892" stroke="white" stroke-width="2" stroke-miterlimit="10" stroke-linecap="round" stroke-linejoin="round"/>
<path d="M77.6816 129.469L92.4781 135.942L77.6816 139.642" stroke="white" stroke-width="2" stroke-linecap="round" stroke-linejoin="round"/>
<path d="M131.318 129.469L116.522 135.942L131.318 139.642" stroke="white" stroke-width="2" stroke-linecap="round" stroke-linejoin="round"/>
<path d="M97.1016 157.212C100.184 156.288 107.644 154.993 112.823 157.212" stroke="white" stroke-width="2" stroke-linecap="round"/>
<path d="M116.184 153.759C113.292 155.707 112.662 158.934 114.768 161.02" stroke="white" stroke-width="1.5" stroke-linecap="round" stroke-linejoin="round"/>
</svg>
