<svg width="217" height="217" viewBox="0 0 217 217" fill="none" xmlns="http://www.w3.org/2000/svg">
<path d="M133.695 165.992C133.695 181.026 122.24 188.604 108.109 188.604C93.9785 188.604 82.5234 181.026 82.5234 165.992C82.5234 150.959 93.9785 138.772 108.109 138.772C122.24 138.772 133.695 150.959 133.695 165.992Z" fill="#A6191D"/>
<path d="M133.695 165.992C133.695 181.026 122.24 188.604 108.109 188.604C93.9785 188.604 82.5234 181.026 82.5234 165.992C82.5234 150.959 93.9785 138.772 108.109 138.772C122.24 138.772 133.695 150.959 133.695 165.992Z" fill="#A6191D"/>
<ellipse cx="106.375" cy="171.514" rx="19.0813" ry="19.1589" fill="#FEECD6"/>
<path d="M105.658 173.181L82.9158 167.39L84.7398 180.356L105.658 188.806L130.814 176.802V163.21L105.658 173.181Z" fill="white"/>
<path d="M105.658 168.118L82.9158 159.618L84.7398 168.118L105.658 176.546L130.814 165.788V156.878L105.658 168.118Z" fill="#39130B"/>
<path d="M133.695 145.955C122.258 150.413 97.1599 148.943 86.0405 147.651L94.6183 130.207L114.633 128.269C120.51 132.065 132.551 140.916 133.695 145.955Z" fill="#A6191D" stroke="#39130B"/>
<path d="M117.888 143.421C117.888 148.675 113.033 153.039 106.907 153.039C100.781 153.039 95.9255 148.675 95.9255 143.421C95.9255 138.167 100.781 133.804 106.907 133.804C113.033 133.804 117.888 138.167 117.888 143.421Z" fill="#BBA47C" stroke="#39130B"/>
<ellipse cx="106.907" cy="143.421" rx="8.41953" ry="7.00433" fill="#29211F"/>
<path d="M52.3448 115.066C57.1716 99.34 55.8072 93.6429 51.8125 91.2133L89.7868 96.3764L101.641 99.1344C101.641 99.1344 111.573 102.221 100.741 124.465C89.9099 146.71 89.7565 147.49 89.9926 166.643C90.2286 185.796 107.284 185.395 113.314 181.399C112.724 185.899 108.464 196.126 96.146 201.033C83.8282 205.941 71.3905 202.32 66.7114 199.896C64.9153 201.615 59.2757 205.173 51.0855 205.646C40.8477 206.237 23.1989 197.607 22.8196 181.979C27.5702 187.841 38.0278 182.875 41.4633 177.722C49.7217 165.336 42.2733 157.243 48.2968 146.065C34.1721 147.874 24.7026 135.53 21.7335 129.131C29.9261 130.996 47.518 130.793 52.3448 115.066Z" fill="#513B3C" stroke="#39130B"/>
<path d="M168.032 114.483C162.542 98.854 164.423 90.4509 168.435 87.9179L129.001 96.7008L116.942 99.759C116.942 99.759 106.866 103.098 118.736 125.105C118.736 125.105 124.113 139.291 125.745 150.576C127.377 161.86 122.512 185.335 107.805 182.436C108.565 186.928 113.284 197.063 126.082 201.67C138.879 206.277 151.506 202.34 156.22 199.795C158.121 201.473 164.025 204.895 172.439 205.164C182.955 205.5 200.753 196.416 200.604 180.756C195.935 186.745 185.178 181.908 181.343 176.959C172.284 165.267 174.854 154.129 173.248 145.425C187.792 146.885 197.076 134.285 199.9 127.803C191.564 129.875 173.521 130.111 168.032 114.483Z" fill="#513B3C" stroke="#39130B"/>
<path d="M146.893 103.542L146.888 103.578V103.614C146.888 114.721 142.268 124.024 134.053 130.561C125.828 137.106 113.966 140.902 99.4647 140.902C84.918 140.902 73.2948 138.579 65.3225 133.513C57.3883 128.472 53.0198 120.683 53.0198 109.58C53.0198 87.2499 68.6983 62.3476 97.5087 62.3476C112.018 62.3476 125.337 66.0758 134.533 73.085C143.706 80.0768 148.798 90.3435 146.893 103.542Z" fill="#FEECD6" stroke="#39130B"/>
<ellipse cx="72.7696" cy="116.491" rx="10.3506" ry="7.10315" fill="#F8C9BF"/>
<ellipse cx="124.893" cy="114.885" rx="10.3506" ry="7.10315" fill="#F8C9BF"/>
<path d="M7.53089 63.8365L50.5638 53.8922C60.7352 55.4833 86.0985 28.0369 97.5087 14.1148C91.6406 14.1148 80.8824 11.6287 66.2121 9.14264C52.1286 6.756 47.6297 11.543 43.7176 15.1092C34.2634 23.7277 13.2034 43.5501 4.59683 53.8922C-4.00974 64.2343 2.9668 64.8309 7.53089 63.8365Z" fill="#A6191D"/>
<path d="M7.53089 63.8365L50.5638 53.8922C60.7352 55.4833 86.0985 28.0369 97.5087 14.1148C91.6406 14.1148 80.8824 11.6287 66.2121 9.14264C52.1286 6.756 47.6297 11.543 43.7176 15.1092C34.2634 23.7277 13.2034 43.5501 4.59683 53.8922C-4.00974 64.2343 2.9668 64.8309 7.53089 63.8365Z" fill="url(#paint0_radial)"/>
<path d="M7.53089 63.8365L50.5638 53.8922C60.7352 55.4833 86.0985 28.0369 97.5087 14.1148C91.6406 14.1148 80.8824 11.6287 66.2121 9.14264C52.1286 6.756 47.6297 11.543 43.7176 15.1092C34.2634 23.7277 13.2034 43.5501 4.59683 53.8922C-4.00974 64.2343 2.9668 64.8309 7.53089 63.8365Z" stroke="#39130B"/>
<path d="M68.9139 28.0214H31.3409L29.2148 29.9873L60.1218 34.9293L68.9139 28.0214Z" fill="#BBA47C"/>
<path d="M51.5696 10.8081C39.8334 23.7357 35.8894 44.8762 34.9114 56.4779L41.7615 54.8865C41.7615 39.97 48.6356 20.7524 51.5696 10.8081Z" fill="#BBA47C"/>
<path d="M34.0122 33.9811C31.1259 33.8908 26.792 36.6359 27.8844 38.8573C29.6694 42.4873 37.0762 35.2002 34.0122 33.9811Z" fill="#BBA47C"/>
<path d="M81.6916 105.975C77.6461 109.761 71.5593 114.155 66.6425 108.995C61.8351 103.95 67.1396 95.9757 77.9156 94.0557C85.8796 93.071 85.737 102.189 81.6916 105.975Z" fill="white"/>
<path d="M78.6598 93.9341C78.4089 93.9715 78.1608 94.012 77.9156 94.0557M77.9156 94.0557C67.1396 95.9757 61.8351 103.95 66.6425 108.995C71.5593 114.155 77.6461 109.761 81.6916 105.975C85.737 102.189 85.8796 93.071 77.9156 94.0557Z" stroke="#39130B"/>
<path d="M84.1762 80.5742C81.0206 84.402 72.2512 90.9093 62.4189 86.3159" stroke="#39130B" stroke-width="2"/>
<path d="M134.849 107.412C139.788 101.38 133.218 92.9498 121.054 91.7321C112.1 91.3159 113.013 101.462 117.833 105.334C119.468 106.648 121.352 106.414 123.35 107.412C125.347 108.41 124.516 117.146 124.516 117.146C124.516 117.665 125.256 118.913 127.61 118.385C129.426 117.978 129.343 115.93 129.135 114.972C128.969 114.206 128.196 110.454 128.423 108.853C128.542 108.014 133.457 109.111 134.849 107.412Z" fill="white"/>
<path d="M120.215 91.6602C120.497 91.6804 120.777 91.7044 121.054 91.7321M121.054 91.7321C133.218 92.9498 139.788 101.38 134.849 107.412C133.457 109.111 128.542 108.014 128.423 108.853C128.196 110.454 128.969 114.206 129.135 114.972C129.343 115.93 129.426 117.978 127.61 118.385C125.256 118.913 124.516 117.665 124.516 117.146C124.516 117.146 125.347 108.41 123.35 107.412C121.352 106.414 119.468 106.648 117.833 105.334C113.013 101.462 112.1 91.3159 121.054 91.7321Z" stroke="#39130B"/>
<path d="M112.562 77.2143C115.389 80.7437 123.054 87.5505 131.108 86.5421" stroke="#39130B" stroke-width="2" stroke-linecap="round" stroke-linejoin="round"/>
<path d="M48.6077 120.519C60.344 126.088 69.7982 122.84 73.0582 120.519C59.7572 118.133 59.0399 102.951 60.344 95.6584C64.5821 93.3381 73.8406 86.7085 76.9703 78.753C76.9703 84.3218 85.4465 92.3436 89.6846 95.6584L86.7505 107.592L98.4867 100.631L112.179 105.603L106.311 94.664C110.223 91.6807 118.047 82.9297 118.047 71.792C122.742 80.543 136.303 83.3937 142.498 83.7252V105.603C142.498 116.74 134.673 120.188 130.761 120.519C140.216 123.834 160.493 127.281 165.97 114.553C185.53 121.514 197.267 110.575 197.267 95.6584C178.489 98.0451 175.098 88.6974 175.75 83.7252V69.8031C174.446 51.2403 158.928 14.7115 107.289 17.0981C55.6495 19.4848 39.4795 59.1958 37.8495 78.753V102.619C37.8495 108.188 29.3733 110.243 25.1353 110.575C29.6993 115.216 40.7836 123.701 48.6077 120.519Z" fill="#513B3C" stroke="#39130B"/>
<path d="M111.201 11.1315C97.5084 11.1315 90.0103 16.7667 87.7282 19.087C85.4462 21.4073 94.8308 18.4442 99.4644 18.0926C103.273 17.8036 109.245 18.0926 109.245 18.0926C109.897 17.4296 112.765 15.1093 111.201 11.1315Z" fill="#A6191D" stroke="#39130B"/>
<path d="M126.849 68.8087C129.979 66.422 146.41 55.8811 147.388 53.8922C148.366 51.9033 137.412 15.7059 132.717 10.1371C123.915 4.17046 118.047 -4.77945 113.157 6.15933C108.267 17.0981 103.377 29.0313 99.4647 36.9868C96.335 43.3512 99.4647 45.9367 101.421 47.9256L118.047 66.8198C119.677 68.4772 123.72 71.1953 126.849 68.8087Z" fill="#A6191D"/>
<path d="M126.849 68.8087C129.979 66.422 146.41 55.8811 147.388 53.8922C148.366 51.9033 137.412 15.7059 132.717 10.1371C123.915 4.17046 118.047 -4.77945 113.157 6.15933C108.267 17.0981 103.377 29.0313 99.4647 36.9868C96.335 43.3512 99.4647 45.9367 101.421 47.9256L118.047 66.8198C119.677 68.4772 123.72 71.1953 126.849 68.8087Z" fill="url(#paint1_radial)"/>
<path d="M126.849 68.8087C129.979 66.422 146.41 55.8811 147.388 53.8922C148.366 51.9033 137.412 15.7059 132.717 10.1371C123.915 4.17046 118.047 -4.77945 113.157 6.15933C108.267 17.0981 103.377 29.0313 99.4647 36.9868C96.335 43.3512 99.4647 45.9367 101.421 47.9256L118.047 66.8198C119.677 68.4772 123.72 71.1953 126.849 68.8087Z" stroke="#39130B"/>
<path d="M93.9885 126.102C94.359 130.766 98.4649 129.381 100.472 128.106C104.292 131.112 107.302 129.29 107.418 125.1C107.534 120.911 101.398 121.913 100.472 123.37C99.0824 121.913 93.5254 120.273 93.9885 126.102Z" fill="#E38E83" stroke="#A13948" stroke-width="0.5" stroke-linejoin="round"/>
<path d="M67.9355 18.3564L68.8829 61.8472" stroke="white" stroke-width="2" stroke-linecap="round"/>
<path d="M62.4426 30.4731L63.3868 58.508" stroke="white" stroke-width="1.5" stroke-linecap="round"/>
<path d="M57.3496 33.8729L56.6479 56.478" stroke="white" stroke-width="1.5" stroke-linecap="round"/>
<path d="M77.5494 81.3193C74.7709 72.7263 72.1079 60.7195 79.2859 48.3597" stroke="#39130B" stroke-linecap="round"/>
<path d="M142.533 84.4786C143.282 77.8575 141.31 67.7399 135.165 62.5048" stroke="#39130B"/>
<path d="M93.0234 51.8703C92.5505 55.7361 90.2173 58.6234 87.8119 58.3192C85.4066 58.015 83.5088 54.5488 83.9817 50.683C84.4546 46.8172 87.9935 44.3119 90.3988 44.6161C92.8041 44.9203 93.4963 48.0045 93.0234 51.8703Z" fill="#88686A"/>
<path d="M156.203 42.8882C156.203 45.1915 156.808 48.4425 154.196 48.4425C152.915 48.4425 150.856 45.3501 149.746 42.8882C148.636 40.4262 147.729 36.9387 150.856 36.9387C153.075 36.9387 156.203 40.0161 156.203 42.8882Z" fill="#88686A"/>
<defs>
<radialGradient id="paint0_radial" cx="0" cy="0" r="1" gradientUnits="userSpaceOnUse" gradientTransform="translate(1.98667 62.3689) rotate(-42.9115) scale(18.109 32.1209)">
<stop stop-color="#BBA47C"/>
<stop offset="0.661258" stop-color="#BBA47C"/>
<stop offset="0.661358" stop-color="#39130B"/>
<stop offset="0.739483" stop-color="#39130B"/>
<stop offset="0.739583" stop-color="#A6191D"/>
</radialGradient>
<radialGradient id="paint1_radial" cx="0" cy="0" r="1" gradientUnits="userSpaceOnUse" gradientTransform="translate(122.937 69.8031) rotate(-90) scale(16.9054 21.7472)">
<stop stop-color="#BBA47C"/>
<stop offset="0.744692" stop-color="#BBA47C"/>
<stop offset="0.744792" stop-color="#362523"/>
<stop offset="0.817708" stop-color="#362523"/>
<stop offset="0.817808" stop-color="#A6191D"/>
</radialGradient>
</defs>
</svg>
