<svg version="1" xmlns="http://www.w3.org/2000/svg" width="933.333" height="933.333" viewBox="0 0 700.000000 700.000000"><path d="M345.7 9.2c-5.8 1.2-9.8 3.6-14.2 8.4-10.1 10.9-9.8 27.3.6 38 6.5 6.8 10.6 7.8 34.9 8.9 17.3.7 32.6 2.8 49 6.7 4.7 1.1 9.2 2.1 10 2.3 6.2 1.4 20.4 6.1 30.1 9.8 37.5 14.5 70.7 36 99.5 64.4 9.5 9.3 20.4 21.8 25.9 29.3 2.1 3 4.2 5.7 4.6 6 2.9 2.4 21.7 33.5 26.8 44.5 12.1 25.8 16.9 40.2 23.7 71 .9 4 3.4 21.2 4.2 28 1.4 13.7.7 55.7-1.1 65-.3 1.1-.8 4.2-1.1 7-3.8 27.6-14.4 60.3-28.6 88-32.8 64.2-89.6 114.8-157 139.8-17.2 6.4-42.2 12.9-58.5 15.1-2.2.3-5.6.8-7.5 1-22.8 3.1-64.2 2.2-84-1.9-2.5-.5-11.2-2.2-16-3.1-4.5-.9-23.7-6.4-31.2-9-21.3-7.5-44.6-19.1-63.8-31.9-30.1-20-49.6-38.6-75.3-71.5-.7-.8-3.7-5.3-6.8-10-18.9-28.8-30.8-55.5-39.4-88.3-3.6-14-3.7-14.3-5.5-26.4-.7-4.3-1.4-8.7-1.6-9.8-2.5-12.8-2.4-56.4.2-73.5.6-4 3.1-19 4-23.5 4.4-23.6 17.7-58.5 31.7-82.8 7.2-12.7 19.3-30.7 20.5-30.7.4 0 7.5 5.5 15.7 12.1 17.6 14.3 20.1 15.9 23.8 15.9 5.4 0 11.1-5.4 11-10.4 0-1.3-1.3-14.3-1.8-18.3-.2-1.5-.7-6.1-1-10.2-.4-4.1-.9-8.4-1.1-9.5-.2-1.2-.6-5-.9-8.6-.4-3.6-.8-7.4-.9-8.5-.2-1.1-.7-5.4-1.1-9.5-.4-4.1-.8-8.6-1.1-10-.2-1.4-.6-5.4-1-9-1.1-12.3-1.6-14.1-5.2-17.4-2.9-2.6-6.5-2.6-25.7-.5-9.3 1-19.7 2.1-23 2.4-3.3.3-7.6.7-9.5 1-5.8.8-11.2 1.4-17.5 2-3.3.3-7.1.8-8.5 1-1.4.2-5.6.6-9.3 1-3.7.3-8 1-9.4 1.6-3.1 1.1-6.2 4.5-6.5 6.8 0 .9-.2 2.3-.3 3.1-.4 4.2 2.3 7.3 15.6 18 7.6 6.2 13.9 11.5 13.9 11.9 0 .3-1.7 2.8-3.8 5.6-23.8 31.7-43.7 73.6-54.8 115.3-3.7 13.9-3.9 14.7-4.8 20.6-.3 1.9-1 5.5-1.5 7.8-.5 2.4-1.3 7-1.6 10.3-.4 3.3-.9 6.2-1 6.5-1.1 1.8-2 21.9-2 43 0 32.2 1.3 45.4 7.2 73 3.1 14.4 2.7 12.9 5.8 23.5 8.4 29 24.3 65 36.7 83.2 1.5 2.3 2.8 4.4 2.8 4.7 0 1.8 21.6 31.2 30.6 41.6 8.4 9.6 31.6 32.4 39.9 39.1 4.3 3.5 9 7.3 10.3 8.4 17.9 15.1 57.3 37.6 84.7 48.2 23.4 9.1 49.2 16.4 66.5 18.9 1.9.2 4.6.7 6 1 1.3.3 4 .8 6 1 1.9.3 4.9.6 6.5.9 16.3 2.1 55.1 2.8 72 1.3 8.4-.8 21.5-2.4 25.1-3.2 1.2-.2 3.8-.7 5.7-1 13-2.1 29.6-6.3 46.7-11.8 9.2-3 32.2-11.8 35.8-13.7.9-.6 5.5-2.9 10.2-5.2 87-42.7 153-122 179.5-215.9 1.3-4.7 2.6-9.6 2.9-11 .3-1.4 1.4-6.6 2.5-11.5 2.4-10.9 3.1-14.7 3.7-20.5.2-2.5.6-5.6.9-7 .4-2.3.8-5.9 2-18.5.7-7.3.8-42 .1-49.2-.3-3.5-.8-9.1-1.2-12.5-.3-3.5-.7-7.4-.9-8.8-.3-1.4-.9-5.4-1.4-9-1.8-11.2-2.2-13.1-5.6-27.5-14.8-61.7-46.2-117.3-92-163-44.6-44.5-98.8-75.3-160-90.7-6.6-1.6-13.1-3.2-14.5-3.4-1.4-.3-4.7-.9-7.5-1.4-21.6-4.1-58.7-6.8-67.8-4.8z"/><path d="M344.1 144.2c-5.6 2.1-11.1 7.7-12.8 13-.6 1.8-4.5 12.3-8.6 23.3s-10.9 29.4-15.2 41c-22.7 61.8-23.2 63-30.7 66.8-3.1 1.6-18.4 7.3-68.8 25.7-12.4 4.5-23.4 8.6-24.5 9.1-1.1.5-8.2 3.1-15.7 5.8-16.8 6.1-18.7 7.1-22.6 11.5-5.3 6.1-6.6 14.9-3.3 22.1 3.5 7.7 6.4 9.8 20.4 14.9 15.1 5.6 25.7 9.5 61.2 22.6 18.2 6.8 36.6 13.6 41 15.2 11.9 4.3 16.1 6.5 18.9 10.3 1.4 1.8 6.9 15 12.1 29.2 5.3 14.2 9.8 26.5 10.2 27.3.3.8.7 1.9.9 2.5.1.5 1.5 4.1 2.9 8 1.5 3.8 3.5 9.2 4.4 12 9.2 25.7 18.5 49.7 20.9 53.3 3.9 5.9 16.1 9.5 23.6 6.9 6.9-2.3 12.4-8.9 15.1-17.7.4-1.4 2.2-6.3 4-11 1.8-4.7 5.9-15.5 9-24 3.1-8.5 7.9-21.6 10.6-29 2.7-7.4 5.4-14.4 5.8-15.5.5-1.1 3.7-9.7 7.1-19 3.4-9.4 6.8-18.1 7.5-19.5 2.2-4.2 7.2-8.6 11.7-10.3 2.4-.9 16-5.9 30.3-11.2 14.3-5.3 27.6-10.2 29.5-11 1.9-.8 10.5-3.9 19-7 46.7-17 48.1-17.7 52-24 1.3-2.1 2.4-5.9 2.7-9.5.5-5 .2-6.7-2-11.2-1.6-3.1-4.1-6.3-6.1-7.7-1.9-1.2-12-5.4-22.3-9.3-10.3-3.8-21-7.8-23.8-8.8-2.7-1-8.1-3-12-4.4-3.8-1.5-9.2-3.5-12-4.5-6.3-2.4-40.3-14.9-51-18.7-9.2-3.3-15.2-8.5-17.3-14.9-.7-2.2-1.7-4.9-2.3-6-.5-1.1-4.8-12.6-9.5-25.5-4.8-12.9-9.7-26.2-10.9-29.5-1.2-3.3-6.6-17.9-12-32.5-11.7-31.8-12.8-34-19.5-37.6-5.6-2.9-12.1-3.3-17.9-1.2z"/></svg>