<svg width="24" height="24" viewBox="0 0 24 24" fill="none" xmlns="http://www.w3.org/2000/svg">
<g clip-path="url(#clip0)">
<path fill-rule="evenodd" clip-rule="evenodd" d="M11.1054 1.23978C11.1054 0.71532 11.5306 0.290161 12.0551 0.290161C18.6023 0.290161 23.91 5.59779 23.91 12.1451C23.91 18.6924 18.6023 24 12.0551 24C5.50776 24 0.200134 18.6924 0.200134 12.1451C0.200134 9.2322 1.25192 6.56252 2.99532 4.49878C3.33377 4.09814 3.93292 4.04773 4.33356 4.38618C4.7342 4.72463 4.78461 5.32377 4.44616 5.72441C2.98145 7.45826 2.09937 9.69743 2.09937 12.1451C2.09937 17.6435 6.55668 22.1008 12.0551 22.1008C17.5534 22.1008 22.0107 17.6435 22.0107 12.1451C22.0107 6.64671 17.5534 2.1894 12.0551 2.1894C11.5306 2.1894 11.1054 1.76424 11.1054 1.23978Z" fill="#FF8A00"/>
<path d="M5.07805 3.22843L1.92917 3.57061C1.59274 3.60717 1.46846 4.03223 1.7322 4.24427L5.22327 7.05098C5.48701 7.26301 5.87545 7.05033 5.8389 6.7139L5.49671 3.56502C5.47405 3.35646 5.28661 3.20576 5.07805 3.22843Z" fill="#FF8A00"/>
<path d="M11.3655 5.37007C11.6024 4.73 12.5077 4.73 12.7445 5.37007L14.2709 9.49498C14.3454 9.69621 14.504 9.85487 14.7053 9.92934L18.8302 11.4557C19.4702 11.6925 19.4702 12.5978 18.8302 12.8347L14.7053 14.361C14.504 14.4355 14.3454 14.5942 14.2709 14.7954L12.7445 18.9203C12.5077 19.5604 11.6024 19.5604 11.3655 18.9203L9.83919 14.7954C9.76472 14.5942 9.60606 14.4355 9.40483 14.361L5.27992 12.8347C4.63985 12.5978 4.63985 11.6925 5.27992 11.4557L9.40483 9.92934C9.60606 9.85487 9.76472 9.69621 9.83919 9.49498L11.3655 5.37007Z" fill="#BB86FC"/>
</g>
<defs>
<clipPath id="clip0">
<rect width="24" height="24" fill="white"/>
</clipPath>
</defs>
</svg>
