<svg width="128" height="128" viewBox="0 0 128 128" fill="none" xmlns="http://www.w3.org/2000/svg">
<path d="M63.936 0C28.608 0 0 28.672 0 64C0 99.328 28.608 128 63.936 128C99.328 128 128 99.328 128 64C128 28.672 99.328 0 63.936 0ZM91.072 102.4L64 86.08L36.928 102.4L44.096 71.616L20.224 50.944L51.712 48.256L64 19.2L76.288 48.192L107.776 50.88L83.904 71.552L91.072 102.4Z" fill="white"/>
<path d="M63.936 0C28.608 0 0 28.672 0 64C0 99.328 28.608 128 63.936 128C99.328 128 128 99.328 128 64C128 28.672 99.328 0 63.936 0ZM91.072 102.4L64 86.08L36.928 102.4L44.096 71.616L20.224 50.944L51.712 48.256L64 19.2L76.288 48.192L107.776 50.88L83.904 71.552L91.072 102.4Z" fill="url(#paint0_linear)"/>
<path d="M63.936 0C28.608 0 0 28.672 0 64C0 99.328 28.608 128 63.936 128C99.328 128 128 99.328 128 64C128 28.672 99.328 0 63.936 0ZM91.072 102.4L64 86.08L36.928 102.4L44.096 71.616L20.224 50.944L51.712 48.256L64 19.2L76.288 48.192L107.776 50.88L83.904 71.552L91.072 102.4Z" fill="url(#paint1_linear)"/>
<defs>
<linearGradient id="paint0_linear" x1="64" y1="0" x2="64" y2="157.333" gradientUnits="userSpaceOnUse">
<stop stop-color="#3700B3" stop-opacity="0.87"/>
<stop offset="1" stop-color="#FF8A00"/>
</linearGradient>
<linearGradient id="paint1_linear" x1="72" y1="72" x2="16" y2="120" gradientUnits="userSpaceOnUse">
<stop stop-color="white" stop-opacity="0.24"/>
<stop offset="1" stop-color="white" stop-opacity="0.15"/>
</linearGradient>
</defs>
</svg>
